/* XPM */
static char *_5d13e1a637141ef9e344a5a4b3c4b645Li9ZxfimhNmmJY1[] = {
/* columns rows colors chars-per-pixel */
"64 64 8 1 ",
"  c #EF1111",
". c #E24E0E",
"X c #F6EC1C",
"o c #1C3FB8",
"O c #1155EF",
"+ c #E20EC6",
"@ c #8CF0E0",
"# c #E4CFC6",
/* pixels */
"XXXXXXXXXXXXXXXXXXXXXXXXXXXXXXXXXXXXXXXXXXXXXXXXXXXXXXXXXXXXXXXX",
"XXXXXXXXXXXXXXXXXXXXXXXXXXXXXXXXXXXXXXXXXXXXXXXXXXXXXXXXXXXXXXXX",
"XXXXXXXXXXXXXXXXXXXXXXXXXXXXXXXXXXXXXXXXXXXXXXXXXXXXXXXXXXXXXXXX",
"XXXXXXXXXXXXXXXXXXXXXXXXXXXXXXXXXXXXXXXXXXXXXXXXXXXXXXXXXXXXXXXX",
"XXXX########################################################XXXX",
"XXXX########################################################XXXX",
"XXXX########################################################XXXX",
"XXXX###XXXXXXXXXXXXXXXXXXXXXXXXXXXXXXXXXXXXXXXXXXXXXXXXXX###XXXX",
"XXXX###XXXXXXXXXXXXXXXXXXXXXXXXXXXXXXXXXXXXXXXXXXXXXXXXXX###XXXX",
"XXXX###XXXXXXXXXXXXXXXXXXXXXXXXXXXXXXXXXXXXXXXXXXXXXXXXXX###XXXX",
"XXXX###XXX                                            XXX###XXXX",
"XXXX###XXX OOOOOOOOOOOOOOOOOOOOOOOOOOOOOOOOOOOOOOOOOO XXX###XXXX",
"XXXX###XXX O@@@@@@@@@@@@@@@@@@@@@@@@@@@@@@@@@@@@@@@@O XXX###XXXX",
"XXXX###XXX O@oooooooooooooooooooooooooooooooooooooo@O XXX###XXXX",
"XXXX###XXX O@o....................................o@O XXX###XXXX",
"XXXX###XXX O@o.++++++++++++++++++++++++++++++++++.o@O XXX###XXXX",
"XXXX###XXX O@o.+oooooooooooooooooooooooooooooooo+.o@O XXX###XXXX",
"XXXX###XXX O@o.+o..............................o+.o@O XXX###XXXX",
"XXXX###XXX O@o.+o.oooooooooooooooooooooooooooo.o+.o@O XXX###XXXX",
"XXXX###XXX O@o.+o.o..........................o.o+.o@O XXX###XXXX",
"XXXX###XXX O@o.+o.o.oooooooooooooooooooooooo.o.o+.o@O XXX###XXXX",
"XXXX###XXX O@o.+o.o.o......................o.o.o+.o@O XXX###XXXX",
"XXXX###XXX O@o.+o.o.o.#########.XXXXXXXXXX.o.o.o+.o@O XXX###XXXX",
"XXXX###XXX O@o.+o.o.o.#########.XXXXXXXXXX.o.o.o+.o@O XXX###XXXX",
"XXXX###XXX O@o.+o.o.o.#########.XXXXXXXXXX.o.o.o+.o@O XXX###XXXX",
"XXXX###XXX O@o.+o.o.o.#########..XXXXXXXXX.o.o.o+.o@O XXX###XXXX",
"XXXX###XXX O@o.+o.o.o.##########.XXXXXXXXX.o.o.o+.o@O XXX###XXXX",
"XXXX###XXX O@o.+o.o.o.##########.XXXXXXXXX.o.o.o+.o@O XXX###XXXX",
"XXXX###XXX O@o.+o.o.o.##########.XXXXXXXXX.o.o.o+.o@O XXX###XXXX",
"XXXX###XXX O@o.+o.o.o.##########.XXXXXXXXX.o.o.o+.o@O XXX###XXXX",
"XXXX###XXX O@o.+o.o.o......#####........XX.o.o.o+.o@O XXX###XXXX",
"XXXX###XXX O@o.+o.o.o.XXXX........#####....o.o.o+.o@O XXX###XXXX",
"XXXX###XXX O@o.+o.o.o.XXXXXXXXX..#########.o.o.o+.o@O XXX###XXXX",
"XXXX###XXX O@o.+o.o.o.XXXXXXXXX.##########.o.o.o+.o@O XXX###XXXX",
"XXXX###XXX O@o.+o.o.o.XXXXXXXXX.##########.o.o.o+.o@O XXX###XXXX",
"XXXX###XXX O@o.+o.o.o.XXXXXXXXX.##########.o.o.o+.o@O XXX###XXXX",
"XXXX###XXX O@o.+o.o.o.XXXXXXXXX.##########.o.o.o+.o@O XXX###XXXX",
"XXXX###XXX O@o.+o.o.o.XXXXXXXXX..#########.o.o.o+.o@O XXX###XXXX",
"XXXX###XXX O@o.+o.o.o.XXXXXXXXXX.#########.o.o.o+.o@O XXX###XXXX",
"XXXX###XXX O@o.+o.o.o.XXXXXXXXXX.#########.o.o.o+.o@O XXX###XXXX",
"XXXX###XXX O@o.+o.o.o.XXXXXXXXXX.#########.o.o.o+.o@O XXX###XXXX",
"XXXX###XXX O@o.+o.o.o.XXXXXXXXXX.#########.o.o.o+.o@O XXX###XXXX",
"XXXX###XXX O@o.+o.o.o......................o.o.o+.o@O XXX###XXXX",
"XXXX###XXX O@o.+o.o.oooooooooooooooooooooooo.o.o+.o@O XXX###XXXX",
"XXXX###XXX O@o.+o.o..........................o.o+.o@O XXX###XXXX",
"XXXX###XXX O@o.+o.oooooooooooooooooooooooooooo.o+.o@O XXX###XXXX",
"XXXX###XXX O@o.+o..............................o+.o@O XXX###XXXX",
"XXXX###XXX O@o.+oooooooooooooooooooooooooooooooo+.o@O XXX###XXXX",
"XXXX###XXX O@o.++++++++++++++++++++++++++++++++++.o@O XXX###XXXX",
"XXXX###XXX O@o....................................o@O XXX###XXXX",
"XXXX###XXX O@oooooooooooooooooooooooooooooooooooooo@O XXX###XXXX",
"XXXX###XXX O@@@@@@@@@@@@@@@@@@@@@@@@@@@@@@@@@@@@@@@@O XXX###XXXX",
"XXXX###XXX OOOOOOOOOOOOOOOOOOOOOOOOOOOOOOOOOOOOOOOOOO XXX###XXXX",
"XXXX###XXX                                            XXX###XXXX",
"XXXX###XXXXXXXXXXXXXXXXXXXXXXXXXXXXXXXXXXXXXXXXXXXXXXXXXX###XXXX",
"XXXX###XXXXXXXXXXXXXXXXXXXXXXXXXXXXXXXXXXXXXXXXXXXXXXXXXX###XXXX",
"XXXX###XXXXXXXXXXXXXXXXXXXXXXXXXXXXXXXXXXXXXXXXXXXXXXXXXX###XXXX",
"XXXX########################################################XXXX",
"XXXX########################################################XXXX",
"XXXX########################################################XXXX",
"XXXXXXXXXXXXXXXXXXXXXXXXXXXXXXXXXXXXXXXXXXXXXXXXXXXXXXXXXXXXXXXX",
"XXXXXXXXXXXXXXXXXXXXXXXXXXXXXXXXXXXXXXXXXXXXXXXXXXXXXXXXXXXXXXXX",
"XXXXXXXXXXXXXXXXXXXXXXXXXXXXXXXXXXXXXXXXXXXXXXXXXXXXXXXXXXXXXXXX",
"XXXXXXXXXXXXXXXXXXXXXXXXXXXXXXXXXXXXXXXXXXXXXXXXXXXXXXXXXXXXXXXX"
};
