/* XPM */
static char *a56e17171acb4839ac29620938bc9d4fT51WUzPZty1IDMva[] = {
/* columns rows colors chars-per-pixel */
"64 64 4 1 ",
"  c #EF1111",
". c #1155EF",
"X c #E20EC6",
"o c #8CF0E0",
/* pixels */
"oooooooooooooooooooooooooooooooooooooooooooooooooooooooooooooooo",
"o..............................................................o",
"o.                                                            .o",
"o. XXXXXXXXXXXXXXXXXXXXXXXXXXXXXXXXXXXXXXXXXXXXXXXXXXXXXXXXXX .o",
"o. X                                                        X .o",
"o. X ...................................................... X .o",
"o. X .oooooooooooooooooooooooooooooooooooooooooooooooooooo. X .o",
"o. X .o..................................................o. X .o",
"o. X .o.                                                .o. X .o",
"o. X .o. XXXXXXXXXXXXXXXXXXXXXXXXXXXXXXXXXXXXXXXXXXXXXX .o. X .o",
"o. X .o. X                                            X .o. X .o",
"o. X .o. X .......................................... X .o. X .o",
"o. X .o. X .oooooooooooooooooooooooooooooooooooooooo. X .o. X .o",
"o. X .o. X .o......................................o. X .o. X .o",
"o. X .o. X .o.                                    .o. X .o. X .o",
"o. X .o. X .o. XXXXXXXXXXXXXXXXXXXXXXXXXXXXXXXXXX .o. X .o. X .o",
"o. X .o. X .o. X                                X .o. X .o. X .o",
"o. X .o. X .o. X .............................. X .o. X .o. X .o",
"o. X .o. X .o. X .oooooooooooooooooooooooooooo. X .o. X .o. X .o",
"o. X .o. X .o. X .o..........................o. X .o. X .o. X .o",
"o. X .o. X .o. X .o.                        .o. X .o. X .o. X .o",
"o. X .o. X .o. X .o. XXXXXXXXXXXXXXXXXXXXXX .o. X .o. X .o. X .o",
"o. X .o. X .o. X .o. XooooooooooooooooooooX .o. X .o. X .o. X .o",
"o. X .o. X .o. X .o. XooooooooooooooooooooX .o. X .o. X .o. X .o",
"o. X .o. X .o. X .o. XooooooooooooooooooooX .o. X .o. X .o. X .o",
"o. X .o. X .o. X .o. XooooooooooooooooooooX .o. X .o. X .o. X .o",
"o. X .o. X .o. X .o. XooooooooooooooooooooX .o. X .o. X .o. X .o",
"o. X .o. X .o. X .o. XooooooooooooooooooooX .o. X .o. X .o. X .o",
"o. X .o. X .o. X .o. XooooooooooooooooooooX .o. X .o. X .o. X .o",
"o. X .o. X .o. X .o. XooooooooooooooooooooX .o. X .o. X .o. X .o",
"o. X .o. X .o. X .o. XooooooooooooooooooooX .o. X .o. X .o. X .o",
"o. X .o. X .o. X .o. XooooooooooooooooooooX .o. X .o. X .o. X .o",
"o. X .o. X .o. X .o. XooooooooooooooooooooX .o. X .o. X .o. X .o",
"o. X .o. X .o. X .o. XooooooooooooooooooooX .o. X .o. X .o. X .o",
"o. X .o. X .o. X .o. XooooooooooooooooooooX .o. X .o. X .o. X .o",
"o. X .o. X .o. X .o. XooooooooooooooooooooX .o. X .o. X .o. X .o",
"o. X .o. X .o. X .o. XooooooooooooooooooooX .o. X .o. X .o. X .o",
"o. X .o. X .o. X .o. XooooooooooooooooooooX .o. X .o. X .o. X .o",
"o. X .o. X .o. X .o. XooooooooooooooooooooX .o. X .o. X .o. X .o",
"o. X .o. X .o. X .o. XooooooooooooooooooooX .o. X .o. X .o. X .o",
"o. X .o. X .o. X .o. XooooooooooooooooooooX .o. X .o. X .o. X .o",
"o. X .o. X .o. X .o. XooooooooooooooooooooX .o. X .o. X .o. X .o",
"o. X .o. X .o. X .o. XXXXXXXXXXXXXXXXXXXXXX .o. X .o. X .o. X .o",
"o. X .o. X .o. X .o.                        .o. X .o. X .o. X .o",
"o. X .o. X .o. X .o..........................o. X .o. X .o. X .o",
"o. X .o. X .o. X .oooooooooooooooooooooooooooo. X .o. X .o. X .o",
"o. X .o. X .o. X .............................. X .o. X .o. X .o",
"o. X .o. X .o. X                                X .o. X .o. X .o",
"o. X .o. X .o. XXXXXXXXXXXXXXXXXXXXXXXXXXXXXXXXXX .o. X .o. X .o",
"o. X .o. X .o.                                    .o. X .o. X .o",
"o. X .o. X .o......................................o. X .o. X .o",
"o. X .o. X .oooooooooooooooooooooooooooooooooooooooo. X .o. X .o",
"o. X .o. X .......................................... X .o. X .o",
"o. X .o. X                                            X .o. X .o",
"o. X .o. XXXXXXXXXXXXXXXXXXXXXXXXXXXXXXXXXXXXXXXXXXXXXX .o. X .o",
"o. X .o.                                                .o. X .o",
"o. X .o..................................................o. X .o",
"o. X .oooooooooooooooooooooooooooooooooooooooooooooooooooo. X .o",
"o. X ...................................................... X .o",
"o. X                                                        X .o",
"o. XXXXXXXXXXXXXXXXXXXXXXXXXXXXXXXXXXXXXXXXXXXXXXXXXXXXXXXXXX .o",
"o.                                                            .o",
"o..............................................................o",
"oooooooooooooooooooooooooooooooooooooooooooooooooooooooooooooooo"
};
