/* XPM */
static char *_6deaf6b9044482e8a1a24c2a666cb136VgR1ama3xQmIOwX[] = {
/* columns rows colors chars-per-pixel */
"64 64 6 1 ",
"  c #EF1111",
". c #E24E0E",
"X c #1C3FB8",
"o c #1155EF",
"O c #E20EC6",
"+ c #8CF0E0",
/* pixels */
"++++++++++++++++++++++++++++++++++++++++++++++++++++++++++++++++",
"+XXXXXXXXXXXXXXXXXXXXXXXXXXXXXXXXXXXXXXXXXXXXXXXXXXXXXXXXXXXXXX+",
"+X                                                            X+",
"+X OOOOOOOOOOOOOOOOOOOOOOOOOOOOOOOOOOOOOOOOOOOOOOOOOOOOOOOOOO X+",
"+X O........................................................O X+",
"+X O.oooooooooooooooooooooooooooooooooooooooooooooooooooooo.O X+",
"+X O.o++++++++++++++++++++++++++++++++++++++++++++++++++++o.O X+",
"+X O.o+XXXXXXXXXXXXXXXXXXXXXXXXXXXXXXXXXXXXXXXXXXXXXXXXXX+o.O X+",
"+X O.o+X                                                X+o.O X+",
"+X O.o+X .............................................. X+o.O X+",
"+X O.o+X .                                            . X+o.O X+",
"+X O.o+X . oooooooooooooooooooooooooooooooooooooooooo . X+o.O X+",
"+X O.o+X . o++++++++++++++++++++++++++++++++++++++++o . X+o.O X+",
"+X O.o+X . o+XXXXXXXXXXXXXXXXXXXXXXXXXXXXXXXXXXXXXX+o . X+o.O X+",
"+X O.o+X . o+X....................................X+o . X+o.O X+",
"+X O.o+X . o+X.OOOOOOOOOOOOOOOOOOOOOOOOOOOOOOOOOO.X+o . X+o.O X+",
"+X O.o+X . o+X.OXXXXXXXXXXXXXXXXXXXXXXXXXXXXXXXXO.X+o . X+o.O X+",
"+X O.o+X . o+X.OX..............................XO.X+o . X+o.O X+",
"+X O.o+X . o+X.OX.XXXXXXXXXXXXXXXXXXXXXXXXXXXX.XO.X+o . X+o.O X+",
"+X O.o+X . o+X.OX.X..........................X.XO.X+o . X+o.O X+",
"+X O.o+X . o+X.OX.X.XXXXXXXXXXXXXXXXXXXXXXXX.X.XO.X+o . X+o.O X+",
"+X O.o+X . o+X.OX.X.X......................X.X.XO.X+o . X+o.O X+",
"+X O.o+X . o+X.OX.X.X.XXXXXXXXX.XXXXXXXXXX.X.X.XO.X+o . X+o.O X+",
"+X O.o+X . o+X.OX.X.X.XXXXXXXXX.XXXXXXXXXX.X.X.XO.X+o . X+o.O X+",
"+X O.o+X . o+X.OX.X.X.XXXXXXXXX.XXXXXXXXXX.X.X.XO.X+o . X+o.O X+",
"+X O.o+X . o+X.OX.X.X.XXXXXXXXX..XXXXXXXXX.X.X.XO.X+o . X+o.O X+",
"+X O.o+X . o+X.OX.X.X.XXXXXXXXXX.XXXXXXXXX.X.X.XO.X+o . X+o.O X+",
"+X O.o+X . o+X.OX.X.X.XXXXXXXXXX.XXXXXXXXX.X.X.XO.X+o . X+o.O X+",
"+X O.o+X . o+X.OX.X.X.XXXXXXXXXX.XXXXXXXXX.X.X.XO.X+o . X+o.O X+",
"+X O.o+X . o+X.OX.X.X.XXXXXXXXXX.XXXXXXXXX.X.X.XO.X+o . X+o.O X+",
"+X O.o+X . o+X.OX.X.X......XXXXX........XX.X.X.XO.X+o . X+o.O X+",
"+X O.o+X . o+X.OX.X.X.XXXX........XXXXX....X.X.XO.X+o . X+o.O X+",
"+X O.o+X . o+X.OX.X.X.XXXXXXXXX..XXXXXXXXX.X.X.XO.X+o . X+o.O X+",
"+X O.o+X . o+X.OX.X.X.XXXXXXXXX.XXXXXXXXXX.X.X.XO.X+o . X+o.O X+",
"+X O.o+X . o+X.OX.X.X.XXXXXXXXX.XXXXXXXXXX.X.X.XO.X+o . X+o.O X+",
"+X O.o+X . o+X.OX.X.X.XXXXXXXXX.XXXXXXXXXX.X.X.XO.X+o . X+o.O X+",
"+X O.o+X . o+X.OX.X.X.XXXXXXXXX.XXXXXXXXXX.X.X.XO.X+o . X+o.O X+",
"+X O.o+X . o+X.OX.X.X.XXXXXXXXX..XXXXXXXXX.X.X.XO.X+o . X+o.O X+",
"+X O.o+X . o+X.OX.X.X.XXXXXXXXXX.XXXXXXXXX.X.X.XO.X+o . X+o.O X+",
"+X O.o+X . o+X.OX.X.X.XXXXXXXXXX.XXXXXXXXX.X.X.XO.X+o . X+o.O X+",
"+X O.o+X . o+X.OX.X.X.XXXXXXXXXX.XXXXXXXXX.X.X.XO.X+o . X+o.O X+",
"+X O.o+X . o+X.OX.X.X.XXXXXXXXXX.XXXXXXXXX.X.X.XO.X+o . X+o.O X+",
"+X O.o+X . o+X.OX.X.X......................X.X.XO.X+o . X+o.O X+",
"+X O.o+X . o+X.OX.X.XXXXXXXXXXXXXXXXXXXXXXXX.X.XO.X+o . X+o.O X+",
"+X O.o+X . o+X.OX.X..........................X.XO.X+o . X+o.O X+",
"+X O.o+X . o+X.OX.XXXXXXXXXXXXXXXXXXXXXXXXXXXX.XO.X+o . X+o.O X+",
"+X O.o+X . o+X.OX..............................XO.X+o . X+o.O X+",
"+X O.o+X . o+X.OXXXXXXXXXXXXXXXXXXXXXXXXXXXXXXXXO.X+o . X+o.O X+",
"+X O.o+X . o+X.OOOOOOOOOOOOOOOOOOOOOOOOOOOOOOOOOO.X+o . X+o.O X+",
"+X O.o+X . o+X....................................X+o . X+o.O X+",
"+X O.o+X . o+XXXXXXXXXXXXXXXXXXXXXXXXXXXXXXXXXXXXXX+o . X+o.O X+",
"+X O.o+X . o++++++++++++++++++++++++++++++++++++++++o . X+o.O X+",
"+X O.o+X . oooooooooooooooooooooooooooooooooooooooooo . X+o.O X+",
"+X O.o+X .                                            . X+o.O X+",
"+X O.o+X .............................................. X+o.O X+",
"+X O.o+X                                                X+o.O X+",
"+X O.o+XXXXXXXXXXXXXXXXXXXXXXXXXXXXXXXXXXXXXXXXXXXXXXXXXX+o.O X+",
"+X O.o++++++++++++++++++++++++++++++++++++++++++++++++++++o.O X+",
"+X O.oooooooooooooooooooooooooooooooooooooooooooooooooooooo.O X+",
"+X O........................................................O X+",
"+X OOOOOOOOOOOOOOOOOOOOOOOOOOOOOOOOOOOOOOOOOOOOOOOOOOOOOOOOOO X+",
"+X                                                            X+",
"+XXXXXXXXXXXXXXXXXXXXXXXXXXXXXXXXXXXXXXXXXXXXXXXXXXXXXXXXXXXXXX+",
"++++++++++++++++++++++++++++++++++++++++++++++++++++++++++++++++"
};
