/* XPM */
static char *a27de83ed51f49cceee1adcf3ade9a36pJb0ycfpE7J4i3f0[] = {
/* columns rows colors chars-per-pixel */
"32 32 2 1 ",
"  c #E22A2A",
". c white",
/* pixels */
" .............................. ",
". ............................ .",
".. .......................... ..",
"... ........................ ...",
"....                        ....",
"....  ....................  ....",
".... . .................. . ....",
".... .. ................ .. ....",
".... ... .............. ... ....",
"..... ... ............ ... .....",
"..... .... .......... .... .....",
"..... ..... ........ ..... .....",
"..... ...... ...... ...... .....",
"..... ....... .... ....... .....",
"..... ........ .. ........ .....",
"..... .........  ......... .....",
"...... ........  ........ ......",
"...... ....... .. ....... ......",
"....... ..... .... ..... .......",
"........ ... ...... ... ........",
"........ .. ........ .. ........",
".........  ..........  .........",
".........  ..........  .........",
"........ .. ........ .. ........",
"....... ... ........ ... .......",
"...... ..... ...... ..... ......",
"..... ....... .... ....... .....",
".... ........ .... ........ ....",
"... .......... .. .......... ...",
".. ............  ............ ..",
". ............................ .",
" .............................. "
};
